<?xml version="1.0" standalone="no"?><!DOCTYPE svg PUBLIC "-//W3C//DTD SVG 1.1//EN" "http://www.w3.org/Graphics/SVG/1.1/DTD/svg11.dtd"><svg class="icon" width="200px" height="200.00px" viewBox="0 0 1024 1024" version="1.1" xmlns="http://www.w3.org/2000/svg"><path fill="#8a8a8a" d="M418.304 227.555556h421.660444a70.257778 70.257778 0 0 1 0 140.515555H418.304a70.257778 70.257778 0 0 1 0-140.515555z m0 234.268444h421.660444a70.257778 70.257778 0 0 1 0 140.515556H418.304a70.257778 70.257778 0 0 1 0-140.515556z m0 234.211556h421.660444a70.257778 70.257778 0 0 1 0 140.515555H418.304a70.257778 70.257778 0 0 1 0-140.515555zM184.035556 368.071111a70.257778 70.257778 0 1 1 0-140.515555 70.257778 70.257778 0 0 1 0 140.515555z m0 234.268445a70.257778 70.257778 0 1 1 0-140.515556 70.257778 70.257778 0 0 1 0 140.515556z m0 234.268444a70.257778 70.257778 0 1 1 0-140.515556 70.257778 70.257778 0 0 1 0 140.515556z"  /></svg>